# xmcd
#
# Track frame offsets:
#	150
#	11405
#	22366
#	32842
#	43316
#	53180
#	64534
#	74754
#	86163
#	95119
#
# Disc length: 1436 seconds
#
# Revision: 0
# Processed by: cddbd v1.5.1PL2 Copyright (c) Steve Scherf et al.
# Submitted via: dBpowerAMP V4.0
#
DISCID=93059a0a
DTITLE=Waylon Jennings - The One and Only
DYEAR=1967
DGENRE=Country
TTITLE0=Yes, Virginia
TTITLE1=Dream Baby
TTITLE2=You Beat All I Ever Saw
TTITLE3=She Loves Me
TTITLE4=It's All Over Now
TTITLE5=Born to Love You
TTITLE6=Down Came the World
TTITLE7=The Dark Side of Fame
TTITLE8=John's Back in Town
TTITLE9=Listen, They're Playing My Song
EXTD=
EXTT0=
EXTT1=
EXTT2=
EXTT3=
EXTT4=
EXTT5=
EXTT6=
EXTT7=
EXTT8=
EXTT9=
PLAYORDER=
